<svg width="768" height="768" viewBox="0 0 768 768" fill="none" xmlns="http://www.w3.org/2000/svg">
<rect width="768" height="768" rx="384" fill="url(#paint0_linear_1654_31)"/>
<path d="M708.326 482.588C708.326 482.588 666.807 430.046 633.122 393.353C579.125 334.534 557.245 314.302 506.286 272.129C473.735 245.19 439.5 212.639 390.673 167.741" stroke="white" stroke-width="48"/>
<path d="M62.9183 290.649C62.9183 290.649 73.7983 307.169 134.755 366.976C194.245 425.343 205.47 437.128 272.816 502.792C336.779 565.155 340.724 570.7 380.01 602.69" stroke="url(#paint1_linear_1654_31)" stroke-width="48"/>
<g filter="url(#filter0_dd_1654_31)">
<path d="M94 548.885C160.3 558.414 204.125 557.292 250.197 516.934C310.265 464.317 400.776 364.667 435.611 331.958C469.885 299.777 506.406 256.847 567.648 237.789C612.012 223.983 698 250.681 698 250.681" stroke="white" stroke-width="48"/>
</g>
<g filter="url(#filter1_dd_1654_31)">
<path d="M551.059 540.71C564.893 584.582 551.767 629.477 538.229 660.148C531.23 676.005 523.528 689.393 517.588 698.816C514.605 703.548 512.032 707.336 510.162 709.997C509.226 711.328 508.464 712.382 507.911 713.134C507.635 713.51 507.41 713.81 507.242 714.033C507.159 714.145 507.09 714.238 507.035 714.31L506.937 714.439C506.933 714.444 506.927 714.451 506.925 714.454C506.919 714.46 493.264 726.261 472.009 709.997C451.226 694.094 464.14 681.745 464.119 681.737C464.127 681.726 464.137 681.711 464.15 681.694C464.215 681.608 464.333 681.449 464.502 681.22C464.84 680.759 465.38 680.016 466.085 679.014C467.496 677.006 469.561 673.971 472.009 670.087C476.933 662.276 483.263 651.25 488.939 638.392C500.751 611.63 507.549 581.882 499.676 556.912C482.763 503.277 455.59 488.269 386.819 423.647C323.039 363.716 298.144 340.742 236.757 288.085C201.131 257.526 183.574 224.473 181.669 190.57C179.806 157.433 193.207 128.506 209.138 106.154C225.13 83.7182 245.175 65.7418 260.654 53.6212C255.648 56.9444 268.494 47.4819 260.654 53.6212L316.185 42.0258L339.417 66.8226L316.207 80.4056C316.207 80.4056 316.199 80.4103 316.185 80.4184C316.15 80.4391 316.075 80.4841 315.962 80.5521C315.736 80.6883 315.358 80.9182 314.841 81.2388C313.807 81.8808 312.225 82.8838 310.207 84.2234C306.161 86.9092 300.42 90.912 293.87 96.0409C280.569 106.457 264.871 120.787 253.012 137.426C241.093 154.148 234.535 171.068 235.461 187.546C236.344 203.259 244.324 223.592 271.835 247.191C334.064 300.569 359.602 324.142 423.712 384.384C485.144 442.11 528.686 469.755 551.059 540.71ZM464.096 681.767C464.096 681.767 464.098 681.763 464.1 681.761C464.102 681.757 464.106 681.752 464.111 681.747C464.113 681.744 464.119 681.737 464.119 681.737C464.106 681.753 464.098 681.763 464.096 681.767Z" fill="url(#paint2_linear_1654_31)"/>
</g>
<path d="M151 370.826C209.899 316.924 294.04 244.692 328.819 211.928C363.036 179.693 413.521 133.883 474.663 114.793C518.954 100.964 556 96.8258 556 96.8258" stroke="white" stroke-width="48"/>
<path d="M204 666.826C272.404 666.826 323.987 660.109 363.796 627.643C403.604 595.176 491.071 515.131 527.516 477.067C563.96 439.003 629 385.826 629 385.826" stroke="white" stroke-width="48"/>
<path d="M384.5 26.8737C581.942 26.8737 742 186.932 742 384.374C742 581.815 581.942 741.874 384.5 741.874C187.058 741.874 27.0001 581.815 27 384.374C27 186.932 187.058 26.8737 384.5 26.8737ZM384.5 71.7711C211.855 71.7711 71.8984 211.728 71.8984 384.374C71.8985 557.019 211.855 696.975 384.5 696.975C557.145 696.975 697.102 557.019 697.103 384.374C697.103 211.728 557.145 71.7711 384.5 71.7711Z" fill="white"/>
<defs>
<filter id="filter0_dd_1654_31" x="82.5856" y="197.825" width="630.523" height="391.998" filterUnits="userSpaceOnUse" color-interpolation-filters="sRGB">
<feFlood flood-opacity="0" result="BackgroundImageFix"/>
<feColorMatrix in="SourceAlpha" type="matrix" values="0 0 0 0 0 0 0 0 0 0 0 0 0 0 0 0 0 0 127 0" result="hardAlpha"/>
<feOffset dx="8" dy="12"/>
<feComposite in2="hardAlpha" operator="out"/>
<feColorMatrix type="matrix" values="0 0 0 0 0.196078 0 0 0 0 0.184314 0 0 0 0 0.709804 0 0 0 1 0"/>
<feBlend mode="normal" in2="BackgroundImageFix" result="effect1_dropShadow_1654_31"/>
<feColorMatrix in="SourceAlpha" type="matrix" values="0 0 0 0 0 0 0 0 0 0 0 0 0 0 0 0 0 0 127 0" result="hardAlpha"/>
<feOffset dx="-8" dy="-12"/>
<feComposite in2="hardAlpha" operator="out"/>
<feColorMatrix type="matrix" values="0 0 0 0 0.309804 0 0 0 0 0.184314 0 0 0 0 0.717647 0 0 0 1 0"/>
<feBlend mode="normal" in2="effect1_dropShadow_1654_31" result="effect2_dropShadow_1654_31"/>
<feBlend mode="normal" in="SourceGraphic" in2="effect2_dropShadow_1654_31" result="shape"/>
</filter>
<filter id="filter1_dd_1654_31" x="165.495" y="42.0258" width="407.452" height="676.57" filterUnits="userSpaceOnUse" color-interpolation-filters="sRGB">
<feFlood flood-opacity="0" result="BackgroundImageFix"/>
<feColorMatrix in="SourceAlpha" type="matrix" values="0 0 0 0 0 0 0 0 0 0 0 0 0 0 0 0 0 0 127 0" result="hardAlpha"/>
<feOffset dx="16"/>
<feComposite in2="hardAlpha" operator="out"/>
<feColorMatrix type="matrix" values="0 0 0 0 0 0 0 0 0 0 0 0 0 0 0 0 0 0 0.2 0"/>
<feBlend mode="normal" in2="BackgroundImageFix" result="effect1_dropShadow_1654_31"/>
<feColorMatrix in="SourceAlpha" type="matrix" values="0 0 0 0 0 0 0 0 0 0 0 0 0 0 0 0 0 0 127 0" result="hardAlpha"/>
<feOffset dx="-16"/>
<feComposite in2="hardAlpha" operator="out"/>
<feColorMatrix type="matrix" values="0 0 0 0 0 0 0 0 0 0 0 0 0 0 0 0 0 0 0.2 0"/>
<feBlend mode="normal" in2="effect1_dropShadow_1654_31" result="effect2_dropShadow_1654_31"/>
<feBlend mode="normal" in="SourceGraphic" in2="effect2_dropShadow_1654_31" result="shape"/>
</filter>
<linearGradient id="paint0_linear_1654_31" x1="112.126" y1="104.892" x2="662.506" y2="669.137" gradientUnits="userSpaceOnUse">
<stop stop-color="#C550C7"/>
<stop offset="0.254808" stop-color="#7932B7"/>
<stop offset="0.5" stop-color="#3F2EB7"/>
<stop offset="0.75" stop-color="#134FB4"/>
<stop offset="1" stop-color="#37C9D9"/>
</linearGradient>
<linearGradient id="paint1_linear_1654_31" x1="131.949" y1="320.394" x2="379.449" y2="609.424" gradientUnits="userSpaceOnUse">
<stop offset="0.294543" stop-color="white"/>
<stop offset="1" stop-color="#1453B5"/>
</linearGradient>
<linearGradient id="paint2_linear_1654_31" x1="189.194" y1="182.333" x2="601.133" y2="632.996" gradientUnits="userSpaceOnUse">
<stop stop-color="white"/>
<stop offset="1" stop-color="white"/>
</linearGradient>
</defs>
</svg>
